HIERARCHY
ROOT Hips
{
	OFFSET 0.000000 0.000000 0.000000
	CHANNELS 6 Xposition Yposition Zposition Zrotation Yrotation Xrotation 
	JOINT LHipJoint
	{
		OFFSET 0.000000 0.000000 0.000000
		CHANNELS 3 Zrotation Yrotation Xrotation
		JOINT LeftUpLeg
		{
			OFFSET 1.363060 -1.794630 0.839290
			CHANNELS 3 Zrotation Yrotation Xrotation
			JOINT LeftLeg
			{
				OFFSET 2.448110 -6.726130 0.000000
				CHANNELS 3 Zrotation Yrotation Xrotation
				JOINT LeftFoot
				{
					OFFSET 2.562200 -7.039590 0.000000
					CHANNELS 3 Zrotation Yrotation Xrotation
					JOINT LeftToeBase
					{
						OFFSET 0.157640 -0.433110 2.322550
						CHANNELS 3 Zrotation Yrotation Xrotation
						End Site
						{
							OFFSET 0.000000 0.000000 0.000000
						}
					}
				}
			}
		}
	}
	JOINT RHipJoint
	{
		OFFSET 0.000000 0.000000 0.000000
		CHANNELS 3 Zrotation Yrotation Xrotation
		JOINT RightUpLeg
		{
			OFFSET -1.305520 -1.794630 0.839290
			CHANNELS 3 Zrotation Yrotation Xrotation
			JOINT RightLeg
			{
				OFFSET -2.542530 -6.985550 0.000000
				CHANNELS 3 Zrotation Yrotation Xrotation
				JOINT RightFoot
				{
					OFFSET -2.568260 -7.056230 0.000000
					CHANNELS 3 Zrotation Yrotation Xrotation
					JOINT RightToeBase
					{
						OFFSET -0.164730 -0.452590 2.363150
						CHANNELS 3 Zrotation Yrotation Xrotation
						End Site
						{
							OFFSET 0.000000 0.000000 0.000000
						}
					}
				}
			}
		}
	}
	JOINT LowerBack
	{
		OFFSET 0.000000 0.000000 0.000000
		CHANNELS 3 Zrotation Yrotation Xrotation
		JOINT Spine
		{
			OFFSET 0.028270 2.035590 -0.193380
			CHANNELS 3 Zrotation Yrotation Xrotation
			JOINT Spine1
			{
				OFFSET 0.056720 2.048850 -0.042750
				CHANNELS 3 Zrotation Yrotation Xrotation
				JOINT Neck
				{
					OFFSET 0.000000 0.000000 0.000000
					CHANNELS 3 Zrotation Yrotation Xrotation
					JOINT Neck1
					{
						OFFSET -0.054170 1.746240 0.172020
						CHANNELS 3 Zrotation Yrotation Xrotation
						JOINT Head
						{
							OFFSET 0.104070 1.761360 -0.123970
							CHANNELS 3 Zrotation Yrotation Xrotation
							End Site
							{
								OFFSET 0.000000 0.000000 0.000000
							}
						}
					}
				}
				JOINT LeftShoulder
				{
					OFFSET 0.000000 0.000000 0.000000
					CHANNELS 3 Zrotation Yrotation Xrotation
					JOINT LeftArm
					{
						OFFSET 3.362410 1.200890 -0.311210
						CHANNELS 3 Zrotation Yrotation Xrotation
						JOINT LeftForeArm
						{
							OFFSET 4.983000 -0.000000 -0.000000
							CHANNELS 3 Zrotation Yrotation Xrotation
							JOINT LeftHand
							{
								OFFSET 3.483560 -0.000000 -0.000000
								CHANNELS 3 Zrotation Yrotation Xrotation
								JOINT LeftFingerBase
								{
									OFFSET 0.000000 0.000000 0.000000
									CHANNELS 3 Zrotation Yrotation Xrotation
									JOINT LeftHandIndex1
									{
										OFFSET 0.715260 -0.000000 -0.000000
										CHANNELS 3 Zrotation Yrotation Xrotation
										End Site
										{
											OFFSET 0.000000 0.000000 0.000000
										}
									}
								}
								JOINT LThumb
								{
									OFFSET 0.000000 0.000000 0.000000
									CHANNELS 3 Zrotation Yrotation Xrotation
									End Site
									{
										OFFSET 0.000000 0.000000 0.000000
									}
								}
							}
						}
					}
				}
				JOINT RightShoulder
				{
					OFFSET 0.000000 0.000000 0.000000
					CHANNELS 3 Zrotation Yrotation Xrotation
					JOINT RightArm
					{
						OFFSET -3.136600 1.374050 -0.404650
						CHANNELS 3 Zrotation Yrotation Xrotation
						JOINT RightForeArm
						{
							OFFSET -5.241900 -0.000000 -0.000000
							CHANNELS 3 Zrotation Yrotation Xrotation
							JOINT RightHand
							{
								OFFSET -3.444170 -0.000000 -0.000000
								CHANNELS 3 Zrotation Yrotation Xrotation
								JOINT RightFingerBase
								{
									OFFSET 0.000000 0.000000 0.000000
									CHANNELS 3 Zrotation Yrotation Xrotation
									JOINT RightHandIndex1
									{
										OFFSET -0.622530 -0.000000 -0.000000
										CHANNELS 3 Zrotation Yrotation Xrotation
										End Site
										{
											OFFSET 0.000000 0.000000 0.000000
										}
									}
								}
								JOINT RThumb
								{
									OFFSET 0.000000 0.000000 0.000000
									CHANNELS 3 Zrotation Yrotation Xrotation
									End Site
									{
										OFFSET 0.000000 0.000000 0.000000
									}
								}
							}
						}
					}
				}
			}
		}
	}
}
MOTION
Frames: 12
Frame Time: 0.008333
3.333768 16.182139 8.604864 -175.275798 -17.613579 -155.938997 8.226471 -0.138980 -4.141650 -2.983056 -24.863656 -61.310207 5.943301 20.140643 50.809759 -3.622963 31.102289 -10.081034 0.119300 -2.226800 -6.132800 -12.376922 -0.236911 -2.044439 28.474222 27.653835 -47.278618 -4.362733 -20.241679 49.021637 -1.386096 -11.418703 -25.220765 -0.104500 2.084600 -5.739400 -0.313406 5.055688 44.512611 0.907927 4.202510 0.569331 2.495123 -1.210096 8.555422 -4.485714 -7.537759 -23.412584 10.297226 -7.922425 4.111977 1.528000 -2.785200 14.106700 11.820546 3.022308 0.708413 -88.948521 -21.412389 68.087246 67.324910 -59.379410 -36.698998 0.642503 1.086610 25.685835 16.132649 28.398745 7.459300 -7.125000 0.000000 0.000000 -15.671400 57.320400 -4.808600 -11.915715 -0.153224 1.975119 96.751233 20.872987 43.005005 -56.715949 59.558703 -25.864772 0.491983 -2.613052 29.766991 -9.968864 -20.090437 3.661100 7.125000 0.000000 0.000000 15.617400 -47.640300 -1.041500 
3.308345 16.187202 8.471501 -175.432477 -17.866159 -156.142978 8.219603 -0.163401 -4.122380 -3.074965 -25.213005 -61.148066 5.137803 19.524074 48.173114 -3.446378 30.628024 -9.350639 0.122000 -2.251500 -6.201100 -12.370479 -0.227564 -2.086101 28.931788 27.131463 -46.461623 -4.433227 -20.216495 49.191976 -1.436109 -11.394281 -25.681397 -0.103600 2.075200 -5.713500 -0.119872 4.854516 44.846772 0.919715 3.988972 0.560995 2.449261 -1.306031 8.497091 -4.547426 -7.506782 -23.418238 10.320434 -7.849013 4.130935 1.577800 -2.756000 14.136100 11.817900 3.032060 0.711042 -89.113438 -21.326818 67.839004 66.877498 -59.312225 -36.354036 0.654606 1.081506 25.936421 16.180388 28.328985 7.461000 -7.125000 0.000000 0.000000 -15.588400 57.260800 -4.759700 -11.949559 -0.140241 1.971229 96.840724 20.968538 43.108211 -56.148537 59.393164 -25.471153 0.487625 -2.616857 29.820630 -9.937251 -20.037011 3.639900 7.125000 0.000000 0.000000 15.626100 -47.581000 -1.018700 
3.283461 16.188495 8.338783 -175.572507 -18.084694 -156.278000 8.212793 -0.185737 -4.104615 -3.161076 -25.491610 -61.046582 4.410659 18.906142 45.696550 -3.224758 29.958925 -8.560725 0.124600 -2.275600 -6.268100 -12.361394 -0.223835 -2.122224 29.354406 26.640349 -45.773683 -4.515196 -20.209161 49.407990 -1.488344 -11.362601 -26.141121 -0.106800 2.107100 -5.801600 0.036211 4.637395 45.085134 0.923739 3.739008 0.548843 2.387732 -1.410835 8.465100 -4.619845 -7.458724 -23.463630 10.349866 -7.743041 4.163265 1.643400 -2.711500 14.184600 11.809026 3.049081 0.712542 -89.244576 -21.252117 67.504316 66.362357 -59.229843 -35.962520 0.665515 1.076899 26.149736 16.225244 28.301468 7.472200 -7.125000 0.000000 0.000000 -15.533100 57.241800 -4.735100 -11.990814 -0.127071 1.967848 96.955849 21.050774 43.293810 -55.650023 59.252386 -25.120937 0.483589 -2.623074 29.854046 -9.938491 -20.000800 3.632200 7.125000 0.000000 0.000000 15.608800 -47.539900 -1.001400 
3.258145 16.180846 8.210267 -175.674955 -18.216743 -156.204580 8.206643 -0.202156 -4.094943 -3.140763 -25.662545 -61.226765 3.782914 18.321846 43.467028 -2.974133 29.153249 -7.676653 0.129300 -2.318100 -6.385700 -12.351671 -0.229647 -2.141776 29.645165 26.277830 -45.453434 -4.625230 -20.256488 49.741331 -1.543370 -11.291012 -26.585690 -0.112900 2.166300 -5.965400 0.130103 4.418938 45.030674 0.916076 3.473359 0.533490 2.307909 -1.506389 8.507914 -4.703587 -7.390891 -23.569480 10.367202 -7.602073 4.220338 1.715800 -2.652500 14.258400 11.795219 3.076745 0.712452 -89.364859 -21.182855 67.093056 65.785270 -59.137136 -35.529064 0.676977 1.071861 26.331566 16.289589 28.288285 7.495700 -7.125000 0.000000 0.000000 -15.467500 57.240700 -4.714000 -12.037355 -0.123776 1.963535 97.083456 21.117296 43.554697 -55.207051 59.135275 -24.804800 0.479651 -2.630169 29.891419 -9.957616 -19.957712 3.628900 7.125000 0.000000 0.000000 15.571700 -47.493700 -0.980800 
3.229921 16.161887 8.087999 -175.749018 -18.293945 -155.863430 8.200367 -0.213750 -4.096158 -2.969574 -25.778643 -61.772120 3.252842 17.790985 41.507397 -2.707978 28.254854 -6.754638 0.139100 -2.403900 -6.623300 -12.340329 -0.248919 -2.143745 29.766932 26.020085 -45.590111 -4.766448 -20.366497 50.203511 -1.599444 -11.166592 -26.996487 -0.121300 2.245300 -6.183900 0.222931 4.171060 44.601137 0.894567 3.179914 0.517283 2.169022 -1.583944 8.650693 -4.791520 -7.298686 -23.690801 10.374343 -7.430587 4.295291 1.798000 -2.582400 14.332500 11.775151 3.118297 0.712440 -89.475127 -21.124910 66.657006 65.166642 -59.037988 -35.071990 0.689338 1.065715 26.456970 16.382006 28.297338 7.537600 -7.125000 0.000000 0.000000 -15.388800 57.267700 -4.699400 -12.088962 -0.136396 1.961653 97.218190 21.158148 43.857420 -54.841578 59.054694 -24.540558 0.477352 -2.639721 29.867450 -10.004410 -19.927138 3.636200 7.125000 0.000000 0.000000 15.511700 -47.459700 -0.963600 
3.199758 16.134094 7.969286 -175.806702 -18.346790 -155.366303 8.193904 -0.221879 -4.118160 -2.733385 -25.859454 -62.516751 2.818227 17.326855 39.837787 -2.447695 27.315056 -5.950001 0.153900 -2.528100 -6.967500 -12.331026 -0.274369 -2.153857 29.809493 25.799250 -46.006594 -4.946427 -20.527878 50.806072 -1.660315 -11.000908 -27.412907 -0.130400 2.327800 -6.412500 0.348030 4.074290 43.827338 0.874982 3.121052 0.559083 2.015207 -1.549730 8.907001 -4.728926 -7.308659 -23.763485 10.347794 -7.478341 4.339902 1.774900 -2.595000 14.347000 11.768825 3.149989 0.717285 -89.590039 -21.246875 66.692866 64.510198 -58.928247 -34.576231 0.700007 1.060861 26.488364 16.500075 28.330514 7.598100 -7.125000 0.000000 0.000000 -15.297300 57.323400 -4.691300 -12.100152 -0.174353 1.970845 97.342157 21.139540 43.694453 -54.542641 58.988591 -24.351445 0.472977 -2.644056 29.832700 -10.050590 -19.896667 3.642400 7.125000 0.000000 0.000000 15.458100 -47.428500 -0.947900 
3.168410 16.099945 7.851866 -175.852353 -18.395228 -154.849293 8.181722 -0.223900 -4.132341 -2.518375 -25.918362 -63.294647 2.468443 16.929510 38.444854 -2.212685 26.405529 -5.305773 0.176600 -2.707000 -7.464200 -12.322288 -0.301671 -2.157403 29.860127 25.564213 -46.506893 -5.148882 -20.708258 51.480584 -1.721182 -10.828777 -27.810711 -0.141300 2.422500 -6.674900 0.434266 3.992523 43.048907 0.866547 3.078812 0.573730 1.945653 -1.523661 9.169492 -4.719338 -7.300892 -23.787961 10.314690 -7.483302 4.370342 1.763100 -2.599400 14.330700 11.775457 3.178926 0.719192 -89.773644 -21.380467 66.733547 63.865939 -58.823279 -34.086289 0.708502 1.059714 26.469393 16.641562 28.375416 7.673600 -7.125000 0.000000 0.000000 -15.183800 57.393200 -4.681100 -12.106615 -0.223958 1.974976 97.394560 21.114172 43.530674 -54.304602 58.934741 -24.206062 0.469589 -2.645188 29.767272 -10.079129 -19.869426 3.643500 7.125000 0.000000 0.000000 15.424700 -47.400600 -0.934900 
3.135770 16.058686 7.736169 -175.881797 -18.438012 -154.287721 8.168091 -0.222436 -4.147206 -2.318818 -25.953886 -64.123873 2.197363 16.606024 37.330392 -2.013450 25.589828 -4.812877 0.206000 -2.922700 -8.063600 -12.312507 -0.333119 -2.157086 29.902936 25.331446 -47.118553 -5.369427 -20.906362 52.214229 -1.777166 -10.655203 -28.154984 -0.155300 2.539400 -6.998800 0.526131 3.923196 42.207417 0.857856 3.061149 0.584885 1.873776 -1.480824 9.434287 -4.694002 -7.300643 -23.799834 10.279012 -7.508346 4.398342 1.741900 -2.611300 14.307700 11.784826 3.206404 0.719225 -89.951085 -21.525056 66.837932 63.254662 -58.719901 -33.620730 0.717038 1.059039 26.415948 16.807225 28.415900 7.759600 -7.125000 0.000000 0.000000 -15.042500 57.463700 -4.661900 -12.108967 -0.274884 1.980285 97.440937 21.051549 43.297894 -54.158880 58.911131 -24.125773 0.468188 -2.646197 29.687058 -10.097525 -19.852572 3.644000 7.125000 0.000000 0.000000 15.403700 -47.382000 -0.926400 
3.110131 16.031216 7.608084 -175.866519 -18.445957 -154.299078 8.157666 -0.224453 -4.142566 -2.556270 -25.877753 -64.147637 1.999148 16.342283 36.488127 -1.854766 24.853302 -4.426997 0.242700 -3.170400 -8.753400 -12.303827 -0.338673 -2.187649 30.376533 24.942096 -46.910269 -5.602205 -21.043166 52.943659 -1.842929 -10.547086 -28.585628 -0.173100 2.680100 -7.389500 0.512311 3.944596 42.093946 0.870006 3.091495 0.601563 1.939487 -1.486430 9.511050 -4.704942 -7.288358 -23.782122 10.269541 -7.491594 4.413740 1.736600 -2.606700 14.295500 11.799500 3.208931 0.720335 -90.093778 -21.654462 66.867865 62.741813 -58.620849 -33.222994 0.722069 1.063660 26.301769 16.992513 28.472596 7.860900 -7.125000 0.000000 0.000000 -14.883200 57.551500 -4.642800 -12.100401 -0.292562 1.984787 97.481187 20.994040 43.108694 -54.077290 58.886481 -24.085457 0.467544 -2.644115 29.610170 -10.091772 -19.849229 3.640100 7.125000 0.000000 0.000000 15.411700 -47.376900 -0.924900 
3.083954 16.000299 7.480538 -175.821944 -18.430658 -154.370063 8.147987 -0.224540 -4.129843 -2.840507 -25.784543 -64.088033 1.869388 16.159711 35.929061 -1.710634 24.214536 -3.808823 0.282000 -3.415500 -9.437800 -12.290947 -0.345597 -2.213477 30.891829 24.532183 -46.682311 -5.852893 -21.185107 53.724877 -1.900253 -10.432363 -28.932459 -0.199100 2.873500 -7.926800 0.482083 3.873598 42.095380 0.877265 2.982121 0.598683 1.989901 -1.552199 9.528399 -4.803105 -7.206027 -23.808173 10.279351 -7.332162 4.457117 1.797600 -2.546800 14.329400 11.798278 3.216673 0.720307 -90.193744 -21.667370 66.620985 62.344719 -58.540155 -32.924469 0.727535 1.067009 26.196968 17.167298 28.529825 7.957500 -7.125000 0.000000 0.000000 -14.736300 57.638500 -4.626600 -12.111593 -0.292157 1.987680 97.531515 20.933608 43.179336 -54.081591 58.896241 -24.084560 0.469154 -2.645497 29.548496 -10.096327 -19.854633 3.642100 7.125000 0.000000 0.000000 15.408600 -47.380500 -0.926100 
3.058746 15.967659 7.352560 -175.737413 -18.358739 -154.517673 8.141446 -0.223274 -4.111496 -3.151437 -25.649483 -63.913550 1.805347 16.058548 35.651941 -1.549725 23.522971 -2.864146 0.317300 -3.621200 -10.013200 -12.274585 -0.351918 -2.235341 31.457396 24.134185 -46.405436 -6.122758 -21.331701 54.561311 -1.944123 -10.319813 -29.166223 -0.236000 3.126300 -8.630500 0.418845 3.770067 42.218126 0.876488 2.802856 0.582503 2.011889 -1.645694 9.493547 -4.925684 -7.072508 -23.872242 10.301536 -7.085981 4.518496 1.892400 -2.450200 14.396900 11.785529 3.226210 0.718637 -90.209872 -21.601893 66.200946 62.097807 -58.485269 -32.747014 0.732385 1.069002 26.080392 17.324440 28.570098 8.041500 -7.125000 0.000000 0.000000 -14.599100 57.707000 -4.606600 -12.134767 -0.276647 1.989550 97.620122 20.863608 43.409306 -54.187899 58.945970 -24.140550 0.474338 -2.650898 29.472262 -10.102605 -19.884495 3.650500 7.125000 0.000000 0.000000 15.407400 -47.406300 -0.936000 
3.032030 15.933186 7.226522 -175.655060 -18.288710 -154.693946 8.134225 -0.221251 -4.088451 -3.439631 -25.563222 -63.705106 1.806778 16.048067 35.667153 -1.343705 22.594405 -1.631582 0.339300 -3.743000 -10.354800 -12.250811 -0.361133 -2.256456 31.989360 23.695812 -46.200597 -6.447582 -21.509290 55.561439 -1.980161 -10.163595 -29.313915 -0.283200 3.422500 -9.457300 0.374858 3.634676 42.405625 0.871694 2.580107 0.557837 1.998040 -1.750567 9.434744 -5.032038 -6.923943 -23.985336 10.310011 -6.822630 4.595963 1.981300 -2.344800 14.496300 11.767170 3.234553 0.713275 -90.174408 -21.514112 65.749754 61.986780 -58.454951 -32.676043 0.736174 1.070463 25.944135 17.466329 28.606650 8.117700 -7.125000 0.000000 0.000000 -14.475900 57.770000 -4.588700 -12.162504 -0.254067 1.989250 97.730805 20.786333 43.658613 -54.385047 59.028408 -24.252589 0.480014 -2.657838 29.416356 -10.129489 -19.907718 3.664500 7.125000 0.000000 0.000000 15.382600 -47.427500 -0.942700 
